<svg id="Capa_1" data-name="Capa 1" xmlns="http://www.w3.org/2000/svg" viewBox="0 0 15.72 2.13"><defs><style>.cls-1{fill:#fff;}</style></defs><title>dark-logo</title><path class="cls-1" d="M112.92,126.21a.39.39,0,0,0,.44.3c.24,0,.34-.09.34-.24s-.1-.25-.45-.33c-.57-.13-.71-.34-.71-.62s.27-.6.76-.6.77.29.8.6h-.45c0-.13-.09-.27-.36-.27s-.29.08-.29.22.09.21.42.28c.61.15.74.37.74.66s-.29.64-.84.64a.75.75,0,0,1-.85-.64Z" transform="translate(-112.47 -124.72)"/><path class="cls-1" d="M114.49,124.75h.44v.92c.13-.16.56-.62.82-.92h.54l-.83.86.86,1.21h-.54l-.63-.92-.22.21v.71h-.44Z" transform="translate(-112.47 -124.72)"/><path class="cls-1" d="M117,124.75v2.07h-.45v-2.07Z" transform="translate(-112.47 -124.72)"/><path class="cls-1" d="M117.48,126.82v-2.07H118c.26.46.74,1.3.83,1.53h0c0-.22,0-.58,0-.92v-.61h.4v2.07h-.52c-.23-.4-.76-1.37-.86-1.61h0c0,.18,0,.61,0,1v.63Z" transform="translate(-112.47 -124.72)"/><path class="cls-1" d="M119.74,126.82v-2.07h.56c.26.46.74,1.3.83,1.53h0a8.58,8.58,0,0,1,0-.92v-.61h.4v2.07H121c-.22-.4-.75-1.37-.85-1.61h0c0,.18,0,.61,0,1v.63Z" transform="translate(-112.47 -124.72)"/><path class="cls-1" d="M122.47,126.82v-.73a.14.14,0,0,0,0-.07l-.71-1.27h.5c.16.31.37.73.47,1,.09-.22.32-.65.48-1h.47l-.73,1.26a.13.13,0,0,0,0,.07v.74Z" transform="translate(-112.47 -124.72)"/><path class="cls-1" d="M125.27,126.75a1.28,1.28,0,0,1-.54.1.94.94,0,0,1-1-1,1,1,0,0,1,1.06-1.07,1.19,1.19,0,0,1,.48.09l-.06.21a1.1,1.1,0,0,0-.41-.08.75.75,0,0,0-.79.84.73.73,0,0,0,.78.81,1,1,0,0,0,.42-.08Z" transform="translate(-112.47 -124.72)"/><path class="cls-1" d="M125.55,126.5a1,1,0,0,0,.47.13c.27,0,.43-.14.43-.34s-.11-.3-.38-.4-.54-.29-.54-.58a.59.59,0,0,1,.66-.55.92.92,0,0,1,.44.1l-.07.21a.87.87,0,0,0-.38-.09c-.28,0-.39.16-.39.3s.13.28.41.39.51.3.51.6-.23.58-.7.58a1.07,1.07,0,0,1-.52-.13Z" transform="translate(-112.47 -124.72)"/><path class="cls-1" d="M127,126.5a1,1,0,0,0,.47.13c.27,0,.43-.14.43-.34s-.11-.3-.39-.4-.53-.29-.53-.58a.59.59,0,0,1,.66-.55.92.92,0,0,1,.44.1l-.07.21a.91.91,0,0,0-.38-.09c-.28,0-.39.16-.39.3s.13.28.41.39.51.3.51.6-.23.58-.71.58a1.06,1.06,0,0,1-.51-.13Z" transform="translate(-112.47 -124.72)"/></svg>