<svg id="Capa_1" data-name="Capa 1" xmlns="http://www.w3.org/2000/svg" viewBox="0 0 93.22 13.04"><title>light-logo</title><path d="M267,259.66l-.87-.19a7.26,7.26,0,0,1-1.65-.54,6.09,6.09,0,0,1-1.37-.85l1.11-2a5.65,5.65,0,0,0,1.71.94,6.32,6.32,0,0,0,2,.32,3.56,3.56,0,0,0,1.83-.39,1.26,1.26,0,0,0,.65-1.13h0a1.09,1.09,0,0,0-.29-.81,1.65,1.65,0,0,0-.75-.44,8.63,8.63,0,0,0-1.2-.26H268l-.19,0a11.93,11.93,0,0,1-2.13-.51,3.08,3.08,0,0,1-1.43-1.06,3.49,3.49,0,0,1-.59-2.16h0a3.86,3.86,0,0,1,.56-2.11,3.42,3.42,0,0,1,1.6-1.34,6.34,6.34,0,0,1,2.55-.47,6.93,6.93,0,0,1,1.41.16,7.87,7.87,0,0,1,2.7,1.18l-1,2a6.61,6.61,0,0,0-1.54-.79,4.63,4.63,0,0,0-1.55-.28,3.37,3.37,0,0,0-1.71.36,1.17,1.17,0,0,0-.61,1h0a1.2,1.2,0,0,0,.32.88,1.92,1.92,0,0,0,.78.47c.31.1.75.2,1.31.32h.14l.1,0,.1,0a10.51,10.51,0,0,1,2,.57,3.25,3.25,0,0,1,1.36,1.09,3.46,3.46,0,0,1,.54,2v0a3.71,3.71,0,0,1-.57,2.09,3.53,3.53,0,0,1-1.66,1.33,6.93,6.93,0,0,1-2.64.46Z" transform="translate(-263.06 -246.61)"/><path d="M274.75,246.75h2.41v12.78h-2.41Zm1.45,7.78,5.13-7.78h3l-7.85,10.91Zm2.13-1.47,2.08-1.31,4.49,7.78H282Z" transform="translate(-263.06 -246.61)"/><path d="M288.8,259.53h-2.5V246.75h2.5Z" transform="translate(-263.06 -246.61)"/><path d="M291.44,246.75h2.94l4.76,9.79-.22.23v-10h2.31v12.77h-3l-4.74-9.64.21-.23v9.87h-2.3Z" transform="translate(-263.06 -246.61)"/><path d="M304,246.75H307l4.76,9.79-.21.23v-10h2.3v12.77h-3l-4.74-9.64.21-.23v9.87H304Z" transform="translate(-263.06 -246.61)"/><path d="M321.32,254.59v4.94h-2.41v-4.94l-3.76-7.84h2.52l2.44,5.5,2.45-5.5h2.52Z" transform="translate(-263.06 -246.61)"/><path d="M329.08,259.66l-1-.59a4,4,0,0,1-1.56-1.67,5.43,5.43,0,0,1-.55-2.51v-3.5a5.43,5.43,0,0,1,.55-2.51,4,4,0,0,1,1.56-1.67,4.73,4.73,0,0,1,4.36-.13,4.3,4.3,0,0,1,1.54,1.34,5.08,5.08,0,0,1,.84,2H333a2.77,2.77,0,0,0-1.47-1.79,2.48,2.48,0,0,0-3.38,1.18,3.58,3.58,0,0,0-.32,1.59v3.5a3.64,3.64,0,0,0,.32,1.59,2.51,2.51,0,0,0,.92,1.06,2.66,2.66,0,0,0,2.46.13,2.69,2.69,0,0,0,.92-.7,2.76,2.76,0,0,0,.55-1.11h1.84a5.12,5.12,0,0,1-.84,2,4.49,4.49,0,0,1-1.55,1.33,4.44,4.44,0,0,1-2,.47Z" transform="translate(-263.06 -246.61)"/><path d="M339.93,259.66l-.83-.18a6.36,6.36,0,0,1-1.54-.53,6.16,6.16,0,0,1-1.34-.87l1.11-1.38a4.89,4.89,0,0,0,1.61.95,5.63,5.63,0,0,0,1.91.32,3.86,3.86,0,0,0,2.15-.51,1.67,1.67,0,0,0,.77-1.46h0a1.56,1.56,0,0,0-.35-1.06,2.1,2.1,0,0,0-.9-.58,10,10,0,0,0-1.42-.34H341l-.13,0a12.39,12.39,0,0,1-2.09-.5,2.94,2.94,0,0,1-1.38-1,3.35,3.35,0,0,1-.57-2.09h0a3.76,3.76,0,0,1,.53-2,3.43,3.43,0,0,1,1.56-1.28,6.7,6.7,0,0,1,3.8-.29,6.55,6.55,0,0,1,1.31.45,7.21,7.21,0,0,1,1.27.74l-1,1.42a6.22,6.22,0,0,0-1.46-.8,4.13,4.13,0,0,0-1.45-.27,3.51,3.51,0,0,0-2,.52,1.74,1.74,0,0,0-.72,1.49h0a1.41,1.41,0,0,0,.37,1,2.3,2.3,0,0,0,.93.56,15.07,15.07,0,0,0,1.55.37l.07,0h.07l.09,0h.1a10.6,10.6,0,0,1,1.94.57A2.93,2.93,0,0,1,345,254a3.3,3.3,0,0,1,.52,2v0a3.53,3.53,0,0,1-.55,2,3.49,3.49,0,0,1-1.61,1.26,6.59,6.59,0,0,1-2.53.44Z" transform="translate(-263.06 -246.61)"/><path d="M350.66,259.66l-.83-.18a6.51,6.51,0,0,1-1.54-.53,6.16,6.16,0,0,1-1.34-.87l1.11-1.38a5,5,0,0,0,1.61.95,5.63,5.63,0,0,0,1.91.32,3.84,3.84,0,0,0,2.15-.51,1.67,1.67,0,0,0,.77-1.46h0a1.56,1.56,0,0,0-.35-1.06,2.1,2.1,0,0,0-.9-.58,10,10,0,0,0-1.42-.34h-.11l-.13,0a12.39,12.39,0,0,1-2.09-.5,2.91,2.91,0,0,1-1.37-1,3.29,3.29,0,0,1-.58-2.09h0a3.68,3.68,0,0,1,.54-2,3.35,3.35,0,0,1,1.55-1.28,6.2,6.2,0,0,1,2.45-.44,6.07,6.07,0,0,1,1.35.15,6.55,6.55,0,0,1,1.31.45A7.21,7.21,0,0,1,356,248l-1,1.42a6.22,6.22,0,0,0-1.46-.8,4.09,4.09,0,0,0-1.45-.27,3.54,3.54,0,0,0-2,.52,1.74,1.74,0,0,0-.72,1.49h0a1.41,1.41,0,0,0,.37,1,2.3,2.3,0,0,0,.93.56,14.73,14.73,0,0,0,1.56.37l.06,0h.07l.09,0h.1a10.6,10.6,0,0,1,1.94.57,2.93,2.93,0,0,1,1.3,1.05,3.3,3.3,0,0,1,.52,2v0a3.53,3.53,0,0,1-.55,2,3.46,3.46,0,0,1-1.6,1.26,6.64,6.64,0,0,1-2.54.44Z" transform="translate(-263.06 -246.61)"/></svg>